<mxfile host="Electron" agent="Mozilla/5.0 (Windows NT 10.0; Win64; x64) AppleWebKit/537.36 (KHTML, like Gecko) draw.io/27.0.9 Chrome/134.0.6998.205 Electron/35.4.0 Safari/537.36" version="27.0.9">
  <diagram name="Page-1" id="8RqEmnauraAJhdKd-R43">
    <mxGraphModel dx="1164" dy="825" grid="1" gridSize="10" guides="1" tooltips="1" connect="1" arrows="1" fold="1" page="1" pageScale="1" pageWidth="827" pageHeight="1169" math="0" shadow="0">
      <root>
        <mxCell id="0" />
        <mxCell id="1" parent="0" />
        <mxCell id="KlRUHIPNV8MGeN9YlcRd-1" value="utilisateur" style="swimlane;fontStyle=0;childLayout=stackLayout;horizontal=1;startSize=26;fillColor=none;horizontalStack=0;resizeParent=1;resizeParentMax=0;resizeLast=0;collapsible=1;marginBottom=0;whiteSpace=wrap;html=1;" parent="1" vertex="1">
          <mxGeometry x="459" y="316" width="140" height="364" as="geometry" />
        </mxCell>
        <mxCell id="KlRUHIPNV8MGeN9YlcRd-3" value="+email&amp;nbsp;" style="text;strokeColor=none;fillColor=none;align=left;verticalAlign=top;spacingLeft=4;spacingRight=4;overflow=hidden;rotatable=0;points=[[0,0.5],[1,0.5]];portConstraint=eastwest;whiteSpace=wrap;html=1;" parent="KlRUHIPNV8MGeN9YlcRd-1" vertex="1">
          <mxGeometry y="26" width="140" height="26" as="geometry" />
        </mxCell>
        <mxCell id="KlRUHIPNV8MGeN9YlcRd-5" value="-motDePasse&lt;div&gt;&lt;br&gt;&lt;/div&gt;" style="text;strokeColor=none;fillColor=none;align=left;verticalAlign=top;spacingLeft=4;spacingRight=4;overflow=hidden;rotatable=0;points=[[0,0.5],[1,0.5]];portConstraint=eastwest;whiteSpace=wrap;html=1;" parent="KlRUHIPNV8MGeN9YlcRd-1" vertex="1">
          <mxGeometry y="52" width="140" height="26" as="geometry" />
        </mxCell>
        <mxCell id="sB8PAn80MJzOrsBbL872-75" value="&lt;div&gt;-id&lt;/div&gt;" style="text;strokeColor=none;fillColor=none;align=left;verticalAlign=top;spacingLeft=4;spacingRight=4;overflow=hidden;rotatable=0;points=[[0,0.5],[1,0.5]];portConstraint=eastwest;whiteSpace=wrap;html=1;" parent="KlRUHIPNV8MGeN9YlcRd-1" vertex="1">
          <mxGeometry y="78" width="140" height="26" as="geometry" />
        </mxCell>
        <mxCell id="sB8PAn80MJzOrsBbL872-77" value="-dateCreation" style="text;strokeColor=none;fillColor=none;align=left;verticalAlign=top;spacingLeft=4;spacingRight=4;overflow=hidden;rotatable=0;points=[[0,0.5],[1,0.5]];portConstraint=eastwest;whiteSpace=wrap;html=1;" parent="KlRUHIPNV8MGeN9YlcRd-1" vertex="1">
          <mxGeometry y="104" width="140" height="26" as="geometry" />
        </mxCell>
        <mxCell id="sB8PAn80MJzOrsBbL872-78" value="-roles" style="text;strokeColor=none;fillColor=none;align=left;verticalAlign=top;spacingLeft=4;spacingRight=4;overflow=hidden;rotatable=0;points=[[0,0.5],[1,0.5]];portConstraint=eastwest;whiteSpace=wrap;html=1;" parent="KlRUHIPNV8MGeN9YlcRd-1" vertex="1">
          <mxGeometry y="130" width="140" height="26" as="geometry" />
        </mxCell>
        <mxCell id="sB8PAn80MJzOrsBbL872-79" value="+favoris" style="text;strokeColor=none;fillColor=none;align=left;verticalAlign=top;spacingLeft=4;spacingRight=4;overflow=hidden;rotatable=0;points=[[0,0.5],[1,0.5]];portConstraint=eastwest;whiteSpace=wrap;html=1;" parent="KlRUHIPNV8MGeN9YlcRd-1" vertex="1">
          <mxGeometry y="156" width="140" height="26" as="geometry" />
        </mxCell>
        <mxCell id="sB8PAn80MJzOrsBbL872-80" value="+likes" style="text;strokeColor=none;fillColor=none;align=left;verticalAlign=top;spacingLeft=4;spacingRight=4;overflow=hidden;rotatable=0;points=[[0,0.5],[1,0.5]];portConstraint=eastwest;whiteSpace=wrap;html=1;" parent="KlRUHIPNV8MGeN9YlcRd-1" vertex="1">
          <mxGeometry y="182" width="140" height="26" as="geometry" />
        </mxCell>
        <mxCell id="f9WDqloKM2H8iZ9Kh540-3" value="+lieu" style="text;strokeColor=none;fillColor=none;align=left;verticalAlign=top;spacingLeft=4;spacingRight=4;overflow=hidden;rotatable=0;points=[[0,0.5],[1,0.5]];portConstraint=eastwest;whiteSpace=wrap;html=1;" vertex="1" parent="KlRUHIPNV8MGeN9YlcRd-1">
          <mxGeometry y="208" width="140" height="26" as="geometry" />
        </mxCell>
        <mxCell id="f9WDqloKM2H8iZ9Kh540-4" value="+pseudo" style="text;strokeColor=none;fillColor=none;align=left;verticalAlign=top;spacingLeft=4;spacingRight=4;overflow=hidden;rotatable=0;points=[[0,0.5],[1,0.5]];portConstraint=eastwest;whiteSpace=wrap;html=1;" vertex="1" parent="KlRUHIPNV8MGeN9YlcRd-1">
          <mxGeometry y="234" width="140" height="26" as="geometry" />
        </mxCell>
        <mxCell id="f9WDqloKM2H8iZ9Kh540-5" value="+prix" style="text;strokeColor=none;fillColor=none;align=left;verticalAlign=top;spacingLeft=4;spacingRight=4;overflow=hidden;rotatable=0;points=[[0,0.5],[1,0.5]];portConstraint=eastwest;whiteSpace=wrap;html=1;" vertex="1" parent="KlRUHIPNV8MGeN9YlcRd-1">
          <mxGeometry y="260" width="140" height="26" as="geometry" />
        </mxCell>
        <mxCell id="f9WDqloKM2H8iZ9Kh540-6" value="+experience" style="text;strokeColor=none;fillColor=none;align=left;verticalAlign=top;spacingLeft=4;spacingRight=4;overflow=hidden;rotatable=0;points=[[0,0.5],[1,0.5]];portConstraint=eastwest;whiteSpace=wrap;html=1;" vertex="1" parent="KlRUHIPNV8MGeN9YlcRd-1">
          <mxGeometry y="286" width="140" height="26" as="geometry" />
        </mxCell>
        <mxCell id="f9WDqloKM2H8iZ9Kh540-7" value="+style" style="text;strokeColor=none;fillColor=none;align=left;verticalAlign=top;spacingLeft=4;spacingRight=4;overflow=hidden;rotatable=0;points=[[0,0.5],[1,0.5]];portConstraint=eastwest;whiteSpace=wrap;html=1;" vertex="1" parent="KlRUHIPNV8MGeN9YlcRd-1">
          <mxGeometry y="312" width="140" height="26" as="geometry" />
        </mxCell>
        <mxCell id="f9WDqloKM2H8iZ9Kh540-8" value="+texte" style="text;strokeColor=none;fillColor=none;align=left;verticalAlign=top;spacingLeft=4;spacingRight=4;overflow=hidden;rotatable=0;points=[[0,0.5],[1,0.5]];portConstraint=eastwest;whiteSpace=wrap;html=1;" vertex="1" parent="KlRUHIPNV8MGeN9YlcRd-1">
          <mxGeometry y="338" width="140" height="26" as="geometry" />
        </mxCell>
        <mxCell id="KlRUHIPNV8MGeN9YlcRd-28" value="Message&amp;nbsp;" style="swimlane;fontStyle=0;childLayout=stackLayout;horizontal=1;startSize=26;fillColor=none;horizontalStack=0;resizeParent=1;resizeParentMax=0;resizeLast=0;collapsible=1;marginBottom=0;whiteSpace=wrap;html=1;" parent="1" vertex="1">
          <mxGeometry x="930" y="316" width="140" height="104" as="geometry" />
        </mxCell>
        <mxCell id="KlRUHIPNV8MGeN9YlcRd-29" value="+contenu:string" style="text;strokeColor=none;fillColor=none;align=left;verticalAlign=top;spacingLeft=4;spacingRight=4;overflow=hidden;rotatable=0;points=[[0,0.5],[1,0.5]];portConstraint=eastwest;whiteSpace=wrap;html=1;" parent="KlRUHIPNV8MGeN9YlcRd-28" vertex="1">
          <mxGeometry y="26" width="140" height="26" as="geometry" />
        </mxCell>
        <mxCell id="KlRUHIPNV8MGeN9YlcRd-30" value="+dateEnvoi:date" style="text;strokeColor=none;fillColor=none;align=left;verticalAlign=top;spacingLeft=4;spacingRight=4;overflow=hidden;rotatable=0;points=[[0,0.5],[1,0.5]];portConstraint=eastwest;whiteSpace=wrap;html=1;" parent="KlRUHIPNV8MGeN9YlcRd-28" vertex="1">
          <mxGeometry y="52" width="140" height="26" as="geometry" />
        </mxCell>
        <mxCell id="KlRUHIPNV8MGeN9YlcRd-32" value="+etat :string" style="text;strokeColor=none;fillColor=none;align=left;verticalAlign=top;spacingLeft=4;spacingRight=4;overflow=hidden;rotatable=0;points=[[0,0.5],[1,0.5]];portConstraint=eastwest;whiteSpace=wrap;html=1;" parent="KlRUHIPNV8MGeN9YlcRd-28" vertex="1">
          <mxGeometry y="78" width="140" height="26" as="geometry" />
        </mxCell>
        <mxCell id="sB8PAn80MJzOrsBbL872-5" value="" style="curved=1;endArrow=none;html=1;rounded=0;startFill=0;" parent="1" source="KlRUHIPNV8MGeN9YlcRd-1" target="KlRUHIPNV8MGeN9YlcRd-28" edge="1">
          <mxGeometry width="50" height="50" relative="1" as="geometry">
            <mxPoint x="570" y="370" as="sourcePoint" />
            <mxPoint x="1080" y="280" as="targetPoint" />
            <Array as="points">
              <mxPoint x="600" y="270" />
              <mxPoint x="750" y="240" />
              <mxPoint x="910" y="260" />
            </Array>
          </mxGeometry>
        </mxCell>
        <mxCell id="sB8PAn80MJzOrsBbL872-7" value="envoyeur" style="edgeLabel;html=1;align=center;verticalAlign=middle;resizable=0;points=[];" parent="sB8PAn80MJzOrsBbL872-5" vertex="1" connectable="0">
          <mxGeometry x="-0.8056" y="-6" relative="1" as="geometry">
            <mxPoint y="-1" as="offset" />
          </mxGeometry>
        </mxCell>
        <mxCell id="sB8PAn80MJzOrsBbL872-9" value="message envoyÃ©" style="edgeLabel;html=1;align=center;verticalAlign=middle;resizable=0;points=[];" parent="sB8PAn80MJzOrsBbL872-5" vertex="1" connectable="0">
          <mxGeometry x="0.7699" y="-10" relative="1" as="geometry">
            <mxPoint as="offset" />
          </mxGeometry>
        </mxCell>
        <mxCell id="sB8PAn80MJzOrsBbL872-10" value="envoie" style="edgeLabel;html=1;align=center;verticalAlign=middle;resizable=0;points=[];" parent="sB8PAn80MJzOrsBbL872-5" vertex="1" connectable="0">
          <mxGeometry x="0.0167" y="-3" relative="1" as="geometry">
            <mxPoint as="offset" />
          </mxGeometry>
        </mxCell>
        <mxCell id="sB8PAn80MJzOrsBbL872-11" value="1" style="edgeLabel;html=1;align=center;verticalAlign=middle;resizable=0;points=[];" parent="sB8PAn80MJzOrsBbL872-5" vertex="1" connectable="0">
          <mxGeometry x="-0.9263" y="2" relative="1" as="geometry">
            <mxPoint as="offset" />
          </mxGeometry>
        </mxCell>
        <mxCell id="sB8PAn80MJzOrsBbL872-12" value="*" style="edgeLabel;html=1;align=center;verticalAlign=middle;resizable=0;points=[];" parent="sB8PAn80MJzOrsBbL872-5" vertex="1" connectable="0">
          <mxGeometry x="0.9178" y="1" relative="1" as="geometry">
            <mxPoint x="1" as="offset" />
          </mxGeometry>
        </mxCell>
        <mxCell id="sB8PAn80MJzOrsBbL872-6" value="" style="curved=1;endArrow=none;html=1;rounded=0;startFill=0;" parent="1" source="KlRUHIPNV8MGeN9YlcRd-1" target="KlRUHIPNV8MGeN9YlcRd-28" edge="1">
          <mxGeometry width="50" height="50" relative="1" as="geometry">
            <mxPoint x="670" y="330" as="sourcePoint" />
            <mxPoint x="720" y="280" as="targetPoint" />
            <Array as="points">
              <mxPoint x="610" y="480" />
              <mxPoint x="880" y="480" />
            </Array>
          </mxGeometry>
        </mxCell>
        <mxCell id="sB8PAn80MJzOrsBbL872-14" value="recoit" style="edgeLabel;html=1;align=center;verticalAlign=middle;resizable=0;points=[];" parent="sB8PAn80MJzOrsBbL872-6" vertex="1" connectable="0">
          <mxGeometry x="0.083" y="-3" relative="1" as="geometry">
            <mxPoint as="offset" />
          </mxGeometry>
        </mxCell>
        <mxCell id="sB8PAn80MJzOrsBbL872-15" value="message recu" style="edgeLabel;html=1;align=center;verticalAlign=middle;resizable=0;points=[];" parent="sB8PAn80MJzOrsBbL872-6" vertex="1" connectable="0">
          <mxGeometry x="0.8571" y="3" relative="1" as="geometry">
            <mxPoint x="-18" y="10" as="offset" />
          </mxGeometry>
        </mxCell>
        <mxCell id="sB8PAn80MJzOrsBbL872-16" value="receveur" style="edgeLabel;html=1;align=center;verticalAlign=middle;resizable=0;points=[];" parent="sB8PAn80MJzOrsBbL872-6" vertex="1" connectable="0">
          <mxGeometry x="-0.7811" y="8" relative="1" as="geometry">
            <mxPoint as="offset" />
          </mxGeometry>
        </mxCell>
        <mxCell id="sB8PAn80MJzOrsBbL872-22" value="1" style="edgeLabel;html=1;align=center;verticalAlign=middle;resizable=0;points=[];" parent="sB8PAn80MJzOrsBbL872-6" vertex="1" connectable="0">
          <mxGeometry x="-0.92" relative="1" as="geometry">
            <mxPoint as="offset" />
          </mxGeometry>
        </mxCell>
        <mxCell id="sB8PAn80MJzOrsBbL872-23" value="*" style="edgeLabel;html=1;align=center;verticalAlign=middle;resizable=0;points=[];" parent="sB8PAn80MJzOrsBbL872-6" vertex="1" connectable="0">
          <mxGeometry x="0.9193" y="2" relative="1" as="geometry">
            <mxPoint as="offset" />
          </mxGeometry>
        </mxCell>
        <mxCell id="sB8PAn80MJzOrsBbL872-28" value="Photo" style="swimlane;fontStyle=0;childLayout=stackLayout;horizontal=1;startSize=26;fillColor=none;horizontalStack=0;resizeParent=1;resizeParentMax=0;resizeLast=0;collapsible=1;marginBottom=0;whiteSpace=wrap;html=1;" parent="1" vertex="1">
          <mxGeometry x="460" y="20" width="140" height="104" as="geometry" />
        </mxCell>
        <mxCell id="sB8PAn80MJzOrsBbL872-29" value="+dateCreation&lt;div&gt;&lt;br&gt;&lt;/div&gt;" style="text;strokeColor=none;fillColor=none;align=left;verticalAlign=top;spacingLeft=4;spacingRight=4;overflow=hidden;rotatable=0;points=[[0,0.5],[1,0.5]];portConstraint=eastwest;whiteSpace=wrap;html=1;" parent="sB8PAn80MJzOrsBbL872-28" vertex="1">
          <mxGeometry y="26" width="140" height="26" as="geometry" />
        </mxCell>
        <mxCell id="sB8PAn80MJzOrsBbL872-30" value="+description" style="text;strokeColor=none;fillColor=none;align=left;verticalAlign=top;spacingLeft=4;spacingRight=4;overflow=hidden;rotatable=0;points=[[0,0.5],[1,0.5]];portConstraint=eastwest;whiteSpace=wrap;html=1;" parent="sB8PAn80MJzOrsBbL872-28" vertex="1">
          <mxGeometry y="52" width="140" height="26" as="geometry" />
        </mxCell>
        <mxCell id="sB8PAn80MJzOrsBbL872-32" value="+auteur&lt;div&gt;&lt;br&gt;&lt;/div&gt;" style="text;strokeColor=none;fillColor=none;align=left;verticalAlign=top;spacingLeft=4;spacingRight=4;overflow=hidden;rotatable=0;points=[[0,0.5],[1,0.5]];portConstraint=eastwest;whiteSpace=wrap;html=1;" parent="sB8PAn80MJzOrsBbL872-28" vertex="1">
          <mxGeometry y="78" width="140" height="26" as="geometry" />
        </mxCell>
        <mxCell id="sB8PAn80MJzOrsBbL872-33" value="" style="endArrow=none;html=1;rounded=0;" parent="1" source="KlRUHIPNV8MGeN9YlcRd-1" target="sB8PAn80MJzOrsBbL872-28" edge="1">
          <mxGeometry width="50" height="50" relative="1" as="geometry">
            <mxPoint x="680" y="240" as="sourcePoint" />
            <mxPoint x="730" y="190" as="targetPoint" />
          </mxGeometry>
        </mxCell>
        <mxCell id="sB8PAn80MJzOrsBbL872-34" value="likes" style="edgeLabel;html=1;align=center;verticalAlign=middle;resizable=0;points=[];" parent="sB8PAn80MJzOrsBbL872-33" vertex="1" connectable="0">
          <mxGeometry x="0.0625" y="-1" relative="1" as="geometry">
            <mxPoint as="offset" />
          </mxGeometry>
        </mxCell>
        <mxCell id="sB8PAn80MJzOrsBbL872-35" value="*" style="edgeLabel;html=1;align=center;verticalAlign=middle;resizable=0;points=[];" parent="sB8PAn80MJzOrsBbL872-33" vertex="1" connectable="0">
          <mxGeometry x="0.8438" relative="1" as="geometry">
            <mxPoint as="offset" />
          </mxGeometry>
        </mxCell>
        <mxCell id="sB8PAn80MJzOrsBbL872-36" value="*" style="edgeLabel;html=1;align=center;verticalAlign=middle;resizable=0;points=[];" parent="sB8PAn80MJzOrsBbL872-33" vertex="1" connectable="0">
          <mxGeometry x="-0.8021" y="2" relative="1" as="geometry">
            <mxPoint as="offset" />
          </mxGeometry>
        </mxCell>
        <mxCell id="sB8PAn80MJzOrsBbL872-37" value="Avis" style="swimlane;fontStyle=0;childLayout=stackLayout;horizontal=1;startSize=26;fillColor=none;horizontalStack=0;resizeParent=1;resizeParentMax=0;resizeLast=0;collapsible=1;marginBottom=0;whiteSpace=wrap;html=1;" parent="1" vertex="1">
          <mxGeometry x="200" y="170" width="140" height="104" as="geometry" />
        </mxCell>
        <mxCell id="sB8PAn80MJzOrsBbL872-38" value="+nombreEtoile:number" style="text;strokeColor=none;fillColor=none;align=left;verticalAlign=top;spacingLeft=4;spacingRight=4;overflow=hidden;rotatable=0;points=[[0,0.5],[1,0.5]];portConstraint=eastwest;whiteSpace=wrap;html=1;" parent="sB8PAn80MJzOrsBbL872-37" vertex="1">
          <mxGeometry y="26" width="140" height="26" as="geometry" />
        </mxCell>
        <mxCell id="sB8PAn80MJzOrsBbL872-39" value="+nombreCommentaire" style="text;strokeColor=none;fillColor=none;align=left;verticalAlign=top;spacingLeft=4;spacingRight=4;overflow=hidden;rotatable=0;points=[[0,0.5],[1,0.5]];portConstraint=eastwest;whiteSpace=wrap;html=1;" parent="sB8PAn80MJzOrsBbL872-37" vertex="1">
          <mxGeometry y="52" width="140" height="26" as="geometry" />
        </mxCell>
        <mxCell id="sB8PAn80MJzOrsBbL872-40" value="+dateCreation" style="text;strokeColor=none;fillColor=none;align=left;verticalAlign=top;spacingLeft=4;spacingRight=4;overflow=hidden;rotatable=0;points=[[0,0.5],[1,0.5]];portConstraint=eastwest;whiteSpace=wrap;html=1;" parent="sB8PAn80MJzOrsBbL872-37" vertex="1">
          <mxGeometry y="78" width="140" height="26" as="geometry" />
        </mxCell>
        <mxCell id="sB8PAn80MJzOrsBbL872-41" value="" style="endArrow=none;html=1;rounded=0;startArrow=none;startFill=0;" parent="1" target="sB8PAn80MJzOrsBbL872-37" edge="1">
          <mxGeometry width="50" height="50" relative="1" as="geometry">
            <mxPoint x="459" y="376" as="sourcePoint" />
            <mxPoint x="730" y="190" as="targetPoint" />
          </mxGeometry>
        </mxCell>
        <mxCell id="sB8PAn80MJzOrsBbL872-42" value="commente" style="edgeLabel;html=1;align=center;verticalAlign=middle;resizable=0;points=[];" parent="sB8PAn80MJzOrsBbL872-41" vertex="1" connectable="0">
          <mxGeometry x="-0.0568" y="3" relative="1" as="geometry">
            <mxPoint as="offset" />
          </mxGeometry>
        </mxCell>
        <mxCell id="sB8PAn80MJzOrsBbL872-43" value="*" style="edgeLabel;html=1;align=center;verticalAlign=middle;resizable=0;points=[];" parent="sB8PAn80MJzOrsBbL872-41" vertex="1" connectable="0">
          <mxGeometry x="0.7597" y="1" relative="1" as="geometry">
            <mxPoint as="offset" />
          </mxGeometry>
        </mxCell>
        <mxCell id="sB8PAn80MJzOrsBbL872-44" value="1" style="edgeLabel;html=1;align=center;verticalAlign=middle;resizable=0;points=[];" parent="sB8PAn80MJzOrsBbL872-41" vertex="1" connectable="0">
          <mxGeometry x="-0.7532" relative="1" as="geometry">
            <mxPoint y="1" as="offset" />
          </mxGeometry>
        </mxCell>
        <mxCell id="sB8PAn80MJzOrsBbL872-49" value="" style="endArrow=none;html=1;rounded=0;startArrow=none;startFill=0;" parent="1" source="KlRUHIPNV8MGeN9YlcRd-1" target="sB8PAn80MJzOrsBbL872-37" edge="1">
          <mxGeometry width="50" height="50" relative="1" as="geometry">
            <mxPoint x="430" y="400" as="sourcePoint" />
            <mxPoint x="730" y="190" as="targetPoint" />
            <Array as="points">
              <mxPoint x="310" y="370" />
            </Array>
          </mxGeometry>
        </mxCell>
        <mxCell id="sB8PAn80MJzOrsBbL872-50" value="note" style="edgeLabel;html=1;align=center;verticalAlign=middle;resizable=0;points=[];" parent="sB8PAn80MJzOrsBbL872-49" vertex="1" connectable="0">
          <mxGeometry x="0.3611" relative="1" as="geometry">
            <mxPoint as="offset" />
          </mxGeometry>
        </mxCell>
        <mxCell id="sB8PAn80MJzOrsBbL872-51" value="*" style="edgeLabel;html=1;align=center;verticalAlign=middle;resizable=0;points=[];" parent="sB8PAn80MJzOrsBbL872-49" vertex="1" connectable="0">
          <mxGeometry x="0.9064" relative="1" as="geometry">
            <mxPoint as="offset" />
          </mxGeometry>
        </mxCell>
        <mxCell id="sB8PAn80MJzOrsBbL872-54" value="1" style="edgeLabel;html=1;align=center;verticalAlign=middle;resizable=0;points=[];" parent="sB8PAn80MJzOrsBbL872-49" vertex="1" connectable="0">
          <mxGeometry x="-0.889" relative="1" as="geometry">
            <mxPoint as="offset" />
          </mxGeometry>
        </mxCell>
        <mxCell id="sB8PAn80MJzOrsBbL872-71" value="" style="curved=1;endArrow=none;html=1;rounded=0;startFill=0;startArrow=none;" parent="1" source="KlRUHIPNV8MGeN9YlcRd-1" edge="1">
          <mxGeometry width="50" height="50" relative="1" as="geometry">
            <mxPoint x="220" y="529" as="sourcePoint" />
            <mxPoint x="460" y="67" as="targetPoint" />
            <Array as="points">
              <mxPoint x="40" y="440" />
              <mxPoint x="190" y="50" />
            </Array>
          </mxGeometry>
        </mxCell>
        <mxCell id="sB8PAn80MJzOrsBbL872-72" value="Poster" style="edgeLabel;html=1;align=center;verticalAlign=middle;resizable=0;points=[];" parent="sB8PAn80MJzOrsBbL872-71" vertex="1" connectable="0">
          <mxGeometry x="-0.0841" y="1" relative="1" as="geometry">
            <mxPoint x="29" y="-48" as="offset" />
          </mxGeometry>
        </mxCell>
        <mxCell id="sB8PAn80MJzOrsBbL872-73" value="*" style="edgeLabel;html=1;align=center;verticalAlign=middle;resizable=0;points=[];" parent="sB8PAn80MJzOrsBbL872-71" vertex="1" connectable="0">
          <mxGeometry x="0.9416" y="-1" relative="1" as="geometry">
            <mxPoint as="offset" />
          </mxGeometry>
        </mxCell>
        <mxCell id="sB8PAn80MJzOrsBbL872-74" value="/*" style="edgeLabel;html=1;align=center;verticalAlign=middle;resizable=0;points=[];" parent="sB8PAn80MJzOrsBbL872-71" vertex="1" connectable="0">
          <mxGeometry x="-0.9565" y="1" relative="1" as="geometry">
            <mxPoint x="-1" as="offset" />
          </mxGeometry>
        </mxCell>
      </root>
    </mxGraphModel>
  </diagram>
</mxfile>
